<mxfile host="app.diagrams.net" modified="2023-05-05T04:06:24.854Z" agent="Mozilla/5.0 (Macintosh; Intel Mac OS X 10_15_7) AppleWebKit/537.36 (KHTML, like Gecko) Chrome/112.0.0.0 Safari/537.36" etag="3DBX5bQK_vwjE2fBjxDM" version="21.2.9" type="github">
  <diagram name="第 1 页" id="SKnBZi_jrrAPUqIRD1-J">
    <mxGraphModel dx="954" dy="540" grid="1" gridSize="10" guides="1" tooltips="1" connect="1" arrows="1" fold="1" page="1" pageScale="1" pageWidth="827" pageHeight="1169" math="0" shadow="0">
      <root>
        <mxCell id="0" />
        <mxCell id="1" parent="0" />
        <mxCell id="vD3izKEl1xqs12L703vq-8" style="edgeStyle=orthogonalEdgeStyle;rounded=0;orthogonalLoop=1;jettySize=auto;html=1;exitX=1;exitY=0.5;exitDx=0;exitDy=0;strokeWidth=2;fillColor=#d5e8d4;strokeColor=#82b366;" edge="1" parent="1" source="vD3izKEl1xqs12L703vq-1" target="vD3izKEl1xqs12L703vq-3">
          <mxGeometry relative="1" as="geometry" />
        </mxCell>
        <mxCell id="vD3izKEl1xqs12L703vq-1" value="AWS SQS" style="rounded=1;whiteSpace=wrap;html=1;" vertex="1" parent="1">
          <mxGeometry x="400" y="255" width="120" height="60" as="geometry" />
        </mxCell>
        <mxCell id="vD3izKEl1xqs12L703vq-5" style="edgeStyle=orthogonalEdgeStyle;rounded=0;orthogonalLoop=1;jettySize=auto;html=1;exitX=1;exitY=0.5;exitDx=0;exitDy=0;strokeWidth=2;fillColor=#d5e8d4;strokeColor=#82b366;" edge="1" parent="1" source="vD3izKEl1xqs12L703vq-2" target="vD3izKEl1xqs12L703vq-1">
          <mxGeometry relative="1" as="geometry" />
        </mxCell>
        <mxCell id="vD3izKEl1xqs12L703vq-13" style="edgeStyle=orthogonalEdgeStyle;rounded=0;orthogonalLoop=1;jettySize=auto;html=1;entryX=0.55;entryY=0.95;entryDx=0;entryDy=0;entryPerimeter=0;strokeWidth=2;dashed=1;exitX=0.5;exitY=1;exitDx=0;exitDy=0;fillColor=#dae8fc;strokeColor=#6c8ebf;" edge="1" parent="1" source="vD3izKEl1xqs12L703vq-2" target="vD3izKEl1xqs12L703vq-6">
          <mxGeometry relative="1" as="geometry">
            <mxPoint x="170" y="330" as="targetPoint" />
            <Array as="points">
              <mxPoint x="295" y="320" />
              <mxPoint x="295" y="360" />
              <mxPoint x="171" y="360" />
            </Array>
          </mxGeometry>
        </mxCell>
        <mxCell id="vD3izKEl1xqs12L703vq-14" value="生产者读取数据源" style="edgeLabel;html=1;align=center;verticalAlign=middle;resizable=0;points=[];" vertex="1" connectable="0" parent="vD3izKEl1xqs12L703vq-13">
          <mxGeometry x="-0.1442" y="1" relative="1" as="geometry">
            <mxPoint x="-16" as="offset" />
          </mxGeometry>
        </mxCell>
        <mxCell id="vD3izKEl1xqs12L703vq-2" value="Producer" style="whiteSpace=wrap;html=1;aspect=fixed;" vertex="1" parent="1">
          <mxGeometry x="260" y="250" width="70" height="70" as="geometry" />
        </mxCell>
        <mxCell id="vD3izKEl1xqs12L703vq-9" style="edgeStyle=orthogonalEdgeStyle;rounded=0;orthogonalLoop=1;jettySize=auto;html=1;exitX=1;exitY=0.5;exitDx=0;exitDy=0;entryX=0;entryY=0.5;entryDx=0;entryDy=0;entryPerimeter=0;strokeWidth=2;fillColor=#d5e8d4;strokeColor=#82b366;" edge="1" parent="1" source="vD3izKEl1xqs12L703vq-3" target="vD3izKEl1xqs12L703vq-4">
          <mxGeometry relative="1" as="geometry" />
        </mxCell>
        <mxCell id="vD3izKEl1xqs12L703vq-10" style="edgeStyle=orthogonalEdgeStyle;rounded=0;orthogonalLoop=1;jettySize=auto;html=1;exitX=0.5;exitY=1;exitDx=0;exitDy=0;entryX=0.5;entryY=1;entryDx=0;entryDy=0;dashed=1;strokeWidth=2;fillColor=#dae8fc;strokeColor=#6c8ebf;" edge="1" parent="1" source="vD3izKEl1xqs12L703vq-3" target="vD3izKEl1xqs12L703vq-1">
          <mxGeometry relative="1" as="geometry">
            <Array as="points">
              <mxPoint x="605" y="360" />
              <mxPoint x="440" y="360" />
            </Array>
          </mxGeometry>
        </mxCell>
        <mxCell id="vD3izKEl1xqs12L703vq-11" value="消费者读取SQS" style="edgeLabel;html=1;align=center;verticalAlign=middle;resizable=0;points=[];" vertex="1" connectable="0" parent="vD3izKEl1xqs12L703vq-10">
          <mxGeometry x="-0.008" y="-1" relative="1" as="geometry">
            <mxPoint as="offset" />
          </mxGeometry>
        </mxCell>
        <mxCell id="vD3izKEl1xqs12L703vq-3" value="Consumer" style="whiteSpace=wrap;html=1;aspect=fixed;" vertex="1" parent="1">
          <mxGeometry x="590" y="250" width="70" height="70" as="geometry" />
        </mxCell>
        <mxCell id="vD3izKEl1xqs12L703vq-4" value="PG" style="strokeWidth=2;html=1;shape=mxgraph.flowchart.database;whiteSpace=wrap;" vertex="1" parent="1">
          <mxGeometry x="720" y="247.5" width="70" height="75" as="geometry" />
        </mxCell>
        <mxCell id="vD3izKEl1xqs12L703vq-7" style="edgeStyle=orthogonalEdgeStyle;rounded=0;orthogonalLoop=1;jettySize=auto;html=1;exitX=0.875;exitY=0.5;exitDx=0;exitDy=0;exitPerimeter=0;strokeWidth=2;fillColor=#d5e8d4;strokeColor=#82b366;" edge="1" parent="1" source="vD3izKEl1xqs12L703vq-6" target="vD3izKEl1xqs12L703vq-2">
          <mxGeometry relative="1" as="geometry" />
        </mxCell>
        <mxCell id="vD3izKEl1xqs12L703vq-6" value="数据源" style="ellipse;shape=cloud;whiteSpace=wrap;html=1;" vertex="1" parent="1">
          <mxGeometry x="80" y="250" width="110" height="70" as="geometry" />
        </mxCell>
      </root>
    </mxGraphModel>
  </diagram>
</mxfile>
